<?xml version="1.0" encoding="UTF-8"?>
<svg width="24px" height="24px" viewBox="0 0 24 24" version="1.1" xmlns="http://www.w3.org/2000/svg">
    <path fill="#8A6CFF" d="M12,2C6.48,2 2,6.48 2,12C2,17.52 6.48,22 12,22C17.52,22 22,17.52 22,12C22,6.48 17.52,2 12,2ZM12,16.5C10.07,16.5 8.5,14.93 8.5,13C8.5,11.07 10.07,9.5 12,9.5C13.93,9.5 15.5,11.07 15.5,13C15.5,14.93 13.93,16.5 12,16.5Z"/>
    <path fill="#8A6CFF" d="M12,6C11.45,6 11,6.45 11,7C11,7.55 11.45,8 12,8C12.55,8 13,7.55 13,7C13,6.45 12.55,6 12,6Z"/>
</svg> 