<?xml version="1.0" encoding="UTF-8"?>
<svg width="24px" height="24px" viewBox="0 0 24 24" version="1.1" xmlns="http://www.w3.org/2000/svg">
    <path fill="#FF7B54" d="M13,2V4C17.39,4 21,7.57 21,12C21,13.63 20.5,15.13 19.66,16.4L17.66,14.4C18.17,13.71 18.5,12.89 18.5,12C18.5,8.97 16.03,6.5 13,6.5H11V10.67L6.88,6.56C7.29,6.2 7.76,5.92 8.27,5.74L8,5.5C6.97,5.5 6.5,4.76 6.5,4C6.5,3.24 7,2.5 8,2.5C9,2.5 9.5,3.24 9.5,4C9.5,4.7 8.97,5.5 8,5.5L9.27,6.74C9.87,6.56 10.5,6.46 11.14,6.41L11,6.5V4H13M3,12C3,7.57 6.61,4 11,4V2C5.5,2 1,6.41 1,12C1,14.28 1.82,16.41 3.22,18.11L5.22,16.11C4.21,14.95 3.5,13.54 3.5,12M22.61,18.5L17.61,13.5L14.61,16.5L18.58,20.45C18.97,20.45 19.35,20.3 19.64,20.03C20.16,19.5 20.42,18.61 19.64,17.83L21.61,15.83C22.39,16.61 22.16,17.5 21.64,18.03C21.31,18.34 20.84,18.5 20.39,18.5H22.61M5.61,22.83L1.39,18.61L3.14,16.86L7.36,21.08L5.61,22.83Z"/>
</svg> 