<?xml version="1.0" encoding="UTF-8"?>
<svg width="24" height="24" viewBox="0 0 24 24" fill="none" xmlns="http://www.w3.org/2000/svg">
    <path d="M12 4V2M12 20V22M6.41 6.41L5 5M17.73 17.73L19.14 19.14M4 12H2M20 12H22M17.73 6.27L19.14 4.86M6.27 17.73L4.86 19.14M12 17C9.239 17 7 14.761 7 12C7 9.239 9.239 7 12 7C14.761 7 17 9.239 17 12C17 14.761 14.761 17 12 17Z" stroke="#333333" stroke-width="2" stroke-linecap="round" stroke-linejoin="round"/>
    <path d="M12 8V12L14 14" stroke="#333333" stroke-width="2" stroke-linecap="round" stroke-linejoin="round"/>
</svg> 