<svg width="100" height="100" viewBox="0 0 100 100" xmlns="http://www.w3.org/2000/svg">    <!-- 主心形 -->    <path d="M50 92C46.5 92 43 90.5 40 88.5C20 75 5 58 5 38C5 22 18 10 33 10C41 10 47 15 50 22C53 15 59 10 67 10C82 10 95 22 95 38C95 58 80 75 60 88.5C56.5 90.5 53.5 92 50 92Z" fill="#191919"/>    <!-- 内部细节 - 高光效果 -->    <path d="M35 30C38 35 42 38 48 40C55 42 62 38 65 32C67 36 71 40 76 42C82 45 87 44 90 40C88 58 75 70 60 80C58 81.5 54 83 50 83C46 83 42 81.5 40 80C25 70 12 58 10 40C13 44 18 45 24 42C29 40 33 36 35 30Z" fill="#2a2a2a"/>    <!-- 轻微高光 -->    <path d="M25 25C28 22 32 20 37 20C39 20 41 25 38 28C35 31 30 31 25 28C23 27 23 25 25 25Z" fill="#2e2e2e"/></svg>